<svg xmlns="http://www.w3.org/2000/svg" xmlns:xlink="http://www.w3.org/1999/xlink" width="500" zoomAndPan="magnify" viewBox="0 0 375 374.999991" height="500" preserveAspectRatio="xMidYMid meet" version="1.2"><defs><clipPath id="fbdfb4f0ff"><path d="M 78 160 L 289 160 L 289 215.875 L 78 215.875 Z M 78 160 "/></clipPath></defs><g id="12ecadf362"><rect x="0" width="375" y="0" height="374.999991" style="fill:#ffffff;fill-opacity:1;stroke:none;"/><rect x="0" width="375" y="0" height="374.999991" style="fill:#110d0e;fill-opacity:1;stroke:none;"/><path style=" stroke:none;fill-rule:nonzero;fill:#11613c;fill-opacity:1;" d="M 288.554688 213.730469 L 86.082031 213.730469 C 80.210938 213.730469 76.660156 207.242188 79.8125 202.296875 L 106.453125 160.507812 C 107.085938 159.519531 108.175781 158.917969 109.347656 158.917969 L 265.28125 158.917969 C 266.453125 158.917969 267.542969 159.519531 268.175781 160.507812 L 294.820312 202.296875 C 297.988281 207.242188 294.425781 213.730469 288.554688 213.730469 Z M 288.554688 213.730469 "/><path style=" stroke:none;fill-rule:nonzero;fill:#1eb34e;fill-opacity:1;" d="M 294.769531 202.203125 C 293.480469 204.183594 291.265625 205.578125 288.554688 205.578125 L 86.082031 205.578125 C 83.363281 205.578125 81.15625 204.183594 79.867188 202.203125 L 79.8125 202.296875 C 76.652344 207.242188 80.210938 213.730469 86.082031 213.730469 L 288.554688 213.730469 C 294.425781 213.730469 297.976562 207.242188 294.828125 202.296875 Z M 294.769531 202.203125 "/><path style=" stroke:none;fill-rule:nonzero;fill:#11613c;fill-opacity:1;" d="M 262.394531 161.714844 L 112.308594 161.714844 C 106.914062 161.714844 102.496094 157.296875 102.496094 151.902344 L 102.496094 68.175781 C 102.496094 62.777344 106.914062 58.363281 112.308594 58.363281 C 112.308594 58.363281 262.21875 58.363281 262.394531 58.363281 C 270.460938 58.363281 271.867188 65.125 271.71875 71.4375 C 271.5 80.699219 271.691406 89.988281 271.683594 99.253906 C 271.683594 111.359375 271.660156 123.460938 271.640625 135.566406 C 271.632812 143.835938 275.390625 161.714844 262.394531 161.714844 Z M 262.394531 161.714844 "/><path style=" stroke:none;fill-rule:nonzero;fill:#47cf68;fill-opacity:1;" d="M 250.6875 153.65625 L 124 153.65625 C 119.445312 153.65625 115.71875 149.929688 115.71875 145.371094 L 115.71875 74.703125 C 115.71875 70.148438 119.445312 66.421875 124 66.421875 C 124 66.421875 250.535156 66.421875 250.6875 66.421875 C 257.496094 66.421875 258.6875 72.125 258.5625 77.457031 C 258.378906 85.273438 258.542969 93.117188 258.535156 100.941406 C 258.535156 111.160156 258.511719 121.371094 258.503906 131.59375 C 258.484375 138.5625 261.664062 153.65625 250.6875 153.65625 Z M 250.6875 153.65625 "/><path style=" stroke:none;fill-rule:nonzero;fill:#173e0f;fill-opacity:1;" d="M 135.867188 163.402344 C 128.625 163.402344 121.375 163.359375 114.140625 163.261719 C 100.773438 163.070312 100.957031 150.03125 101.089844 140.5 C 101.097656 139.710938 101.117188 138.9375 101.117188 138.195312 C 101.140625 131.96875 101.40625 125.648438 101.664062 119.535156 C 101.890625 114.128906 102.121094 108.542969 102.199219 103.042969 C 102.222656 101.238281 102.230469 99.3125 102.128906 97.390625 C 102.128906 93.164062 101.957031 88.726562 101.78125 84.433594 C 101.605469 80.125 101.433594 75.667969 101.433594 71.453125 C 101.433594 64 106.753906 58.0625 114.082031 57.332031 C 124.808594 56.898438 133.355469 57.042969 142.394531 57.183594 C 148.351562 57.28125 154.503906 57.375 161.863281 57.339844 C 161.863281 57.339844 161.863281 57.339844 161.871094 57.339844 C 162.328125 57.339844 162.703125 57.707031 162.703125 58.164062 C 162.703125 58.621094 162.335938 58.996094 161.878906 59.003906 C 154.503906 59.046875 148.332031 58.945312 142.378906 58.847656 C 133.355469 58.703125 124.839844 58.5625 114.207031 58.988281 C 107.695312 59.644531 103.105469 64.765625 103.105469 71.453125 C 103.105469 75.636719 103.277344 80.078125 103.453125 84.367188 C 103.628906 88.675781 103.800781 93.132812 103.800781 97.347656 C 103.902344 99.277344 103.894531 101.230469 103.867188 103.070312 C 103.800781 108.589844 103.570312 114.195312 103.335938 119.609375 C 103.078125 125.707031 102.820312 132.007812 102.789062 138.203125 C 102.789062 138.953125 102.769531 139.726562 102.761719 140.523438 C 102.628906 149.839844 102.472656 161.429688 114.171875 161.597656 C 139.054688 161.945312 164.167969 161.589844 188.457031 161.246094 C 212.648438 160.90625 237.664062 160.550781 262.417969 160.890625 C 262.878906 160.898438 263.242188 161.273438 263.242188 161.730469 C 263.242188 162.1875 262.859375 162.5625 262.402344 162.554688 C 237.679688 162.210938 212.675781 162.5625 188.492188 162.910156 C 171.226562 163.144531 153.566406 163.394531 135.867188 163.402344 Z M 135.867188 163.402344 "/><path style=" stroke:none;fill-rule:nonzero;fill:#173e0f;fill-opacity:1;" d="M 141.40625 131.910156 C 141.242188 131.910156 141.082031 131.859375 140.933594 131.757812 C 140.550781 131.5 140.457031 130.976562 140.714844 130.605469 L 172.058594 84.992188 C 172.316406 84.609375 172.839844 84.515625 173.214844 84.773438 C 173.597656 85.03125 173.6875 85.554688 173.429688 85.929688 L 142.089844 131.542969 C 141.9375 131.785156 141.671875 131.910156 141.40625 131.910156 Z M 141.40625 131.910156 "/><path style=" stroke:none;fill-rule:nonzero;fill:#173e0f;fill-opacity:1;" d="M 180.433594 121.921875 C 180.273438 121.921875 180.109375 121.871094 179.96875 121.78125 C 179.585938 121.523438 179.492188 121.007812 179.75 120.625 C 187.476562 109.339844 194.703125 97.539062 201.246094 85.53125 C 201.464844 85.132812 201.972656 84.984375 202.378906 85.199219 C 202.785156 85.414062 202.929688 85.921875 202.710938 86.328125 C 196.140625 98.378906 188.875 110.238281 181.125 121.5625 C 180.957031 121.796875 180.699219 121.921875 180.433594 121.921875 Z M 180.433594 121.921875 "/><path style=" stroke:none;fill-rule:nonzero;fill:#173e0f;fill-opacity:1;" d="M 205.972656 132.675781 C 205.855469 132.675781 205.730469 132.648438 205.613281 132.589844 C 205.199219 132.390625 205.023438 131.902344 205.214844 131.484375 C 211.757812 117.628906 218.894531 103.84375 226.429688 90.503906 C 226.652344 90.105469 227.160156 89.964844 227.558594 90.1875 C 227.957031 90.414062 228.101562 90.921875 227.875 91.320312 C 220.359375 104.625 213.238281 118.371094 206.710938 132.191406 C 206.578125 132.5 206.277344 132.675781 205.972656 132.675781 Z M 205.972656 132.675781 "/><path style=" stroke:none;fill-rule:nonzero;fill:#173e0f;fill-opacity:1;" d="M 260.066406 59.195312 C 260.058594 59.195312 260.058594 59.195312 260.050781 59.195312 C 242.585938 58.914062 228.175781 58.988281 212.914062 59.0625 C 201.730469 59.121094 190.15625 59.179688 176.382812 59.105469 C 175.925781 59.105469 175.550781 58.730469 175.550781 58.273438 C 175.550781 57.816406 175.925781 57.441406 176.382812 57.441406 C 190.144531 57.507812 201.714844 57.457031 212.898438 57.398438 C 228.167969 57.324219 242.585938 57.25 260.066406 57.53125 C 260.523438 57.539062 260.890625 57.914062 260.882812 58.378906 C 260.890625 58.828125 260.515625 59.195312 260.066406 59.195312 Z M 260.066406 59.195312 "/><path style=" stroke:none;fill-rule:nonzero;fill:#173e0f;fill-opacity:1;" d="M 164 155.527344 C 150.378906 155.527344 136.675781 155.144531 123.121094 153.796875 C 120.785156 153.5625 118.355469 153.199219 116.667969 151.535156 C 114.472656 149.382812 114.480469 146.136719 114.679688 142.996094 C 116.066406 120.589844 115.226562 97.765625 114.414062 75.683594 C 114.273438 71.894531 116.242188 68.984375 120.117188 67.277344 C 123.660156 65.707031 127.660156 65.738281 131.1875 65.765625 L 150.15625 65.898438 C 150.613281 65.898438 150.988281 66.28125 150.976562 66.738281 C 150.96875 67.195312 150.605469 67.5625 150.136719 67.5625 L 131.167969 67.429688 C 127.820312 67.402344 124.011719 67.378906 120.792969 68.800781 C 117.546875 70.230469 115.96875 72.535156 116.078125 75.628906 C 116.890625 97.738281 117.730469 120.609375 116.335938 143.09375 C 116.160156 145.847656 116.132812 148.683594 117.832031 150.34375 C 119.136719 151.625 121.15625 151.925781 123.285156 152.132812 C 145.945312 154.378906 169.117188 153.9375 191.519531 153.503906 L 205.304688 153.238281 C 206.695312 153.214844 210.144531 153.273438 214.511719 153.347656 C 226.628906 153.5625 246.910156 153.914062 252.082031 152.90625 C 252.53125 152.816406 252.972656 153.113281 253.054688 153.5625 C 253.140625 154.011719 252.847656 154.453125 252.398438 154.535156 C 247.050781 155.578125 226.660156 155.21875 214.480469 155.011719 C 210.128906 154.9375 206.695312 154.871094 205.332031 154.902344 L 191.542969 155.167969 C 182.460938 155.34375 173.257812 155.527344 164 155.527344 Z M 164 155.527344 "/><g clip-rule="nonzero" clip-path="url(#fbdfb4f0ff)"><path style=" stroke:none;fill-rule:nonzero;fill:#173e0f;fill-opacity:1;" d="M 126.570312 215.882812 C 109.929688 215.882812 94.761719 215.839844 88.191406 215.699219 C 82.089844 215.566406 78.4375 212.574219 78.164062 207.492188 C 77.972656 203.867188 80.195312 200.757812 82.148438 198.019531 C 82.695312 197.253906 83.210938 196.53125 83.667969 195.816406 L 106.15625 160.53125 C 106.40625 160.140625 106.921875 160.035156 107.304688 160.273438 C 107.695312 160.523438 107.800781 161.039062 107.5625 161.421875 L 85.066406 196.699219 C 84.585938 197.457031 84.058594 198.195312 83.496094 198.976562 C 81.605469 201.621094 79.652344 204.347656 79.820312 207.394531 C 80.117188 213.015625 85.207031 213.960938 88.21875 214.027344 C 104.433594 214.378906 173.164062 214.136719 186.769531 214.085938 C 204.855469 214.019531 224.617188 213.894531 247.167969 213.710938 C 253.015625 213.664062 258.859375 213.613281 264.707031 213.5625 C 271.183594 213.503906 277.65625 213.445312 284.132812 213.398438 C 284.457031 213.398438 284.78125 213.378906 285.105469 213.371094 C 285.828125 213.347656 286.578125 213.320312 287.316406 213.386719 C 287.773438 213.429688 288.117188 213.835938 288.066406 214.292969 C 288.023438 214.753906 287.625 215.09375 287.160156 215.042969 C 286.527344 214.984375 285.828125 215.011719 285.164062 215.035156 C 284.824219 215.050781 284.472656 215.058594 284.140625 215.058594 C 277.664062 215.109375 271.191406 215.167969 264.714844 215.226562 C 258.867188 215.277344 253.023438 215.335938 247.175781 215.375 C 224.617188 215.558594 204.855469 215.675781 186.769531 215.75 C 178.679688 215.792969 151.035156 215.882812 126.570312 215.882812 Z M 126.570312 215.882812 "/></g><path style=" stroke:none;fill-rule:nonzero;fill:#173e0f;fill-opacity:1;" d="M 260.699219 206.652344 L 87.320312 206.652344 C 86.863281 206.652344 86.488281 206.277344 86.488281 205.820312 C 86.488281 205.363281 86.863281 204.988281 87.320312 204.988281 L 260.699219 204.988281 C 261.15625 204.988281 261.53125 205.363281 261.53125 205.820312 C 261.53125 206.277344 261.15625 206.652344 260.699219 206.652344 Z M 260.699219 206.652344 "/><path style=" stroke:none;fill-rule:nonzero;fill:#1eb34e;fill-opacity:1;" d="M 277.996094 198.136719 L 99.578125 198.136719 L 119.933594 166.71875 L 257.628906 166.71875 Z M 277.996094 198.136719 "/><path style=" stroke:none;fill-rule:nonzero;fill:#173e0f;fill-opacity:1;" d="M 104.308594 192.023438 C 103.894531 192.023438 103.535156 191.71875 103.484375 191.292969 C 103.429688 190.835938 103.753906 190.421875 104.210938 190.363281 C 104.59375 190.3125 104.976562 190.269531 105.367188 190.230469 C 105.757812 190.1875 106.148438 190.136719 106.539062 190.09375 C 106.570312 190.085938 106.605469 190.085938 106.636719 190.085938 L 273.730469 190.085938 C 274.1875 190.085938 274.5625 190.460938 274.5625 190.917969 C 274.5625 191.375 274.1875 191.75 273.730469 191.75 L 106.6875 191.75 C 106.3125 191.800781 105.929688 191.84375 105.558594 191.882812 C 105.175781 191.925781 104.800781 191.964844 104.417969 192.015625 C 104.375 192.023438 104.34375 192.023438 104.308594 192.023438 Z M 104.308594 192.023438 "/><path style=" stroke:none;fill-rule:nonzero;fill:#173e0f;fill-opacity:1;" d="M 108.574219 184.398438 C 108.160156 184.398438 107.800781 184.089844 107.753906 183.667969 C 107.695312 183.210938 108.019531 182.792969 108.476562 182.734375 C 108.867188 182.6875 109.257812 182.644531 109.648438 182.601562 C 110.03125 182.5625 110.414062 182.511719 110.804688 182.46875 C 110.835938 182.46875 110.871094 182.460938 110.902344 182.460938 L 268.558594 182.460938 C 269.015625 182.460938 269.386719 182.835938 269.386719 183.292969 C 269.386719 183.75 269.015625 184.125 268.558594 184.125 L 110.953125 184.125 C 110.578125 184.167969 110.207031 184.214844 109.839844 184.257812 C 109.457031 184.300781 109.074219 184.347656 108.683594 184.390625 C 108.640625 184.398438 108.609375 184.398438 108.574219 184.398438 Z M 108.574219 184.398438 "/><path style=" stroke:none;fill-rule:nonzero;fill:#173e0f;fill-opacity:1;" d="M 112.167969 176.433594 C 111.753906 176.433594 111.394531 176.125 111.34375 175.699219 C 111.285156 175.242188 111.609375 174.828125 112.066406 174.769531 C 112.460938 174.71875 112.851562 174.679688 113.242188 174.636719 C 113.625 174.59375 114.007812 174.542969 114.398438 174.503906 C 114.429688 174.503906 114.464844 174.496094 114.496094 174.496094 L 263.394531 174.496094 C 263.851562 174.496094 264.222656 174.871094 264.222656 175.328125 C 264.222656 175.785156 263.851562 176.15625 263.394531 176.15625 L 114.546875 176.15625 C 114.171875 176.199219 113.796875 176.25 113.433594 176.292969 C 113.050781 176.332031 112.660156 176.382812 112.277344 176.425781 C 112.234375 176.433594 112.203125 176.433594 112.167969 176.433594 Z M 112.167969 176.433594 "/><path style=" stroke:none;fill-rule:nonzero;fill:#173e0f;fill-opacity:1;" d="M 112.167969 198.96875 C 112.027344 198.96875 111.886719 198.933594 111.753906 198.851562 C 111.351562 198.621094 111.21875 198.113281 111.453125 197.714844 L 129.65625 166.527344 C 129.890625 166.128906 130.398438 165.996094 130.796875 166.230469 C 131.195312 166.460938 131.328125 166.96875 131.09375 167.367188 L 112.890625 198.554688 C 112.734375 198.820312 112.449219 198.96875 112.167969 198.96875 Z M 112.167969 198.96875 "/><path style=" stroke:none;fill-rule:nonzero;fill:#173e0f;fill-opacity:1;" d="M 131.304688 198.96875 C 131.1875 198.96875 131.070312 198.945312 130.960938 198.894531 C 130.546875 198.703125 130.355469 198.210938 130.546875 197.796875 L 144.640625 166.378906 C 144.832031 165.960938 145.324219 165.773438 145.738281 165.960938 C 146.15625 166.152344 146.347656 166.644531 146.15625 167.058594 L 132.058594 198.476562 C 131.925781 198.785156 131.617188 198.96875 131.304688 198.96875 Z M 131.304688 198.96875 "/><path style=" stroke:none;fill-rule:nonzero;fill:#173e0f;fill-opacity:1;" d="M 155.101562 192.023438 C 155.042969 192.023438 154.976562 192.015625 154.921875 192.007812 C 154.472656 191.910156 154.1875 191.460938 154.289062 191.019531 L 159.785156 166.503906 C 159.882812 166.054688 160.332031 165.773438 160.773438 165.871094 C 161.222656 165.972656 161.507812 166.421875 161.40625 166.859375 L 155.910156 191.375 C 155.828125 191.765625 155.484375 192.023438 155.101562 192.023438 Z M 155.101562 192.023438 "/><path style=" stroke:none;fill-rule:nonzero;fill:#173e0f;fill-opacity:1;" d="M 240.480469 198.992188 C 240.199219 198.992188 239.917969 198.84375 239.765625 198.578125 L 221.5625 167.394531 C 221.332031 166.992188 221.464844 166.488281 221.863281 166.253906 C 222.261719 166.019531 222.769531 166.152344 223.003906 166.554688 L 241.207031 197.738281 C 241.4375 198.136719 241.304688 198.644531 240.90625 198.878906 C 240.765625 198.953125 240.625 198.992188 240.480469 198.992188 Z M 240.480469 198.992188 "/><path style=" stroke:none;fill-rule:nonzero;fill:#173e0f;fill-opacity:1;" d="M 254.703125 192.023438 C 254.417969 192.023438 254.136719 191.875 253.988281 191.609375 L 239.765625 167.25 C 239.535156 166.851562 239.667969 166.34375 240.066406 166.113281 C 240.464844 165.878906 240.972656 166.011719 241.207031 166.410156 L 255.425781 190.769531 C 255.660156 191.167969 255.527344 191.675781 255.125 191.910156 C 254.984375 191.992188 254.84375 192.023438 254.703125 192.023438 Z M 254.703125 192.023438 "/><path style=" stroke:none;fill-rule:nonzero;fill:#173e0f;fill-opacity:1;" d="M 221.347656 198.992188 C 221.03125 198.992188 220.722656 198.8125 220.589844 198.503906 L 206.496094 167.085938 C 206.304688 166.667969 206.496094 166.171875 206.910156 165.988281 C 207.328125 165.796875 207.824219 165.988281 208.007812 166.402344 L 222.105469 197.820312 C 222.296875 198.238281 222.105469 198.734375 221.6875 198.917969 C 221.582031 198.96875 221.464844 198.992188 221.347656 198.992188 Z M 221.347656 198.992188 "/><path style=" stroke:none;fill-rule:nonzero;fill:#173e0f;fill-opacity:1;" d="M 197.546875 192.050781 C 197.164062 192.050781 196.824219 191.785156 196.742188 191.402344 L 191.242188 166.886719 C 191.144531 166.4375 191.425781 165.996094 191.875 165.894531 C 192.316406 165.796875 192.765625 166.078125 192.867188 166.527344 L 198.363281 191.042969 C 198.460938 191.492188 198.179688 191.933594 197.730469 192.035156 C 197.671875 192.042969 197.605469 192.050781 197.546875 192.050781 Z M 197.546875 192.050781 "/><path style=" stroke:none;fill-rule:nonzero;fill:#173e0f;fill-opacity:1;" d="M 176.390625 192.023438 C 176.382812 192.023438 176.382812 192.023438 176.375 192.023438 C 175.917969 192.015625 175.550781 191.640625 175.550781 191.183594 L 175.917969 166.667969 C 175.925781 166.210938 176.292969 165.847656 176.75 165.847656 C 176.757812 165.847656 176.757812 165.847656 176.765625 165.847656 C 177.222656 165.855469 177.589844 166.230469 177.589844 166.6875 L 177.222656 191.203125 C 177.214844 191.660156 176.847656 192.023438 176.390625 192.023438 Z M 176.390625 192.023438 "/><path style=" stroke:none;fill-rule:nonzero;fill:#173e0f;fill-opacity:1;" d="M 272.140625 116.199219 C 271.683594 116.199219 271.308594 115.828125 271.308594 115.367188 L 271.308594 78.84375 C 271.308594 78.386719 271.683594 78.015625 272.140625 78.015625 C 272.597656 78.015625 272.972656 78.386719 272.972656 78.84375 L 272.972656 115.367188 C 272.972656 115.828125 272.597656 116.199219 272.140625 116.199219 Z M 272.140625 116.199219 "/><path style=" stroke:none;fill-rule:nonzero;fill:#173e0f;fill-opacity:1;" d="M 272.140625 138.519531 C 271.683594 138.519531 271.308594 138.144531 271.308594 137.6875 L 271.308594 126.902344 C 271.308594 126.445312 271.683594 126.070312 272.140625 126.070312 C 272.597656 126.070312 272.972656 126.445312 272.972656 126.902344 L 272.972656 137.6875 C 272.972656 138.144531 272.597656 138.519531 272.140625 138.519531 Z M 272.140625 138.519531 "/><g style="fill:#47cf68;fill-opacity:1;"><g transform="translate(73.024919, 271.897186)"><path style="stroke:none" d="M 17.34375 -6.140625 L 25.984375 -25.90625 L 29.984375 -25.90625 L 31.4375 0 L 27.4375 0 L 26.375 -22.265625 L 26.21875 -22.265625 L 16.359375 0 L 15.8125 0 L 6.140625 -21.375 L 5.984375 -21.375 L 4.9375 0 L 3.203125 0 L 4.65625 -25.90625 L 8.296875 -25.90625 Z M 17.34375 -6.140625 "/></g></g><g style="fill:#47cf68;fill-opacity:1;"><g transform="translate(111.727883, 271.897186)"><path style="stroke:none" d="M 3.515625 0 L 3.515625 -25.90625 L 19.21875 -25.90625 L 18.828125 -23.28125 L 11.546875 -24.5 C 10.265625 -24.5 8.851562 -24.28125 7.3125 -23.84375 L 7.3125 -14.328125 L 16.015625 -14.328125 L 16.015625 -12.84375 L 7.3125 -12.84375 L 7.3125 -1.40625 L 19.453125 -2.625 L 19.0625 0 Z M 3.515625 0 "/></g></g><g style="fill:#47cf68;fill-opacity:1;"><g transform="translate(137.634389, 271.897186)"><path style="stroke:none" d="M 7.359375 -12.375 L 7.359375 0 L 3.515625 0 L 3.515625 -25.90625 L 11.984375 -25.90625 C 14.617188 -25.90625 16.773438 -25.316406 18.453125 -24.140625 C 20.140625 -22.972656 20.984375 -21.429688 20.984375 -19.515625 C 20.984375 -17.597656 20.3125 -16.082031 18.96875 -14.96875 C 17.625 -13.863281 15.800781 -13.101562 13.5 -12.6875 L 24 0 L 19.453125 0.546875 L 10.375 -12.375 Z M 7.359375 -13.546875 L 9.859375 -13.546875 C 14.554688 -13.546875 16.90625 -15.394531 16.90625 -19.09375 C 16.90625 -19.726562 16.75 -20.4375 16.4375 -21.21875 C 15.832031 -22.863281 14.554688 -23.945312 12.609375 -24.46875 C 10.828125 -24.46875 9.078125 -24.242188 7.359375 -23.796875 Z M 7.359375 -13.546875 "/></g></g><g style="fill:#47cf68;fill-opacity:1;"><g transform="translate(166.515004, 271.897186)"><path style="stroke:none" d="M 23.203125 0.4375 L 22.546875 0.4375 L 5.40625 -21.015625 L 5.25 -21.015625 L 5.25 0 L 3.515625 0 L 3.515625 -25.90625 L 6.421875 -25.90625 L 21.328125 -7.078125 L 21.484375 -7.078125 L 21.484375 -25.90625 L 23.203125 -25.90625 Z M 23.203125 0.4375 "/></g></g><g style="fill:#47cf68;fill-opacity:1;"><g transform="translate(197.156608, 271.897186)"><path style="stroke:none" d="M 15.296875 -26.375 C 18.691406 -26.375 21.5 -25.257812 23.71875 -23.03125 C 25.9375 -20.800781 27.046875 -17.703125 27.046875 -13.734375 C 27.046875 -11.179688 26.601562 -8.945312 25.71875 -7.03125 C 24.832031 -5.113281 23.671875 -3.628906 22.234375 -2.578125 C 19.441406 -0.546875 16.363281 0.46875 13 0.46875 C 9.632812 0.46875 6.847656 -0.65625 4.640625 -2.90625 C 2.429688 -5.164062 1.328125 -8.28125 1.328125 -12.25 C 1.328125 -14.3125 1.617188 -16.171875 2.203125 -17.828125 C 2.796875 -19.484375 3.566406 -20.832031 4.515625 -21.875 C 5.472656 -22.914062 6.578125 -23.789062 7.828125 -24.5 C 10.117188 -25.75 12.609375 -26.375 15.296875 -26.375 Z M 7.4375 -4.46875 C 8.113281 -3.3125 9.023438 -2.414062 10.171875 -1.78125 C 11.328125 -1.144531 12.65625 -0.828125 14.15625 -0.828125 C 15.65625 -0.828125 16.988281 -1.203125 18.15625 -1.953125 C 19.332031 -2.710938 20.25 -3.707031 20.90625 -4.9375 C 22.226562 -7.382812 22.890625 -10.019531 22.890625 -12.84375 C 22.890625 -16.3125 22.203125 -19.101562 20.828125 -21.21875 C 19.285156 -23.59375 16.738281 -24.78125 13.1875 -24.78125 C 10.65625 -23.882812 8.738281 -22.351562 7.4375 -20.1875 C 6.132812 -18.03125 5.484375 -15.582031 5.484375 -12.84375 C 5.484375 -9.5 6.132812 -6.707031 7.4375 -4.46875 Z M 7.4375 -4.46875 "/></g></g><g style="fill:#47cf68;fill-opacity:1;"><g transform="translate(229.441771, 271.897186)"><path style="stroke:none" d="M 12.375 0 L 8.578125 0 L 8.578125 -24.03125 C 7.679688 -24.238281 6.789062 -24.34375 5.90625 -24.34375 L 0.625 -23.125 L 0.390625 -25.90625 L 20.546875 -25.90625 L 20.359375 -23.125 L 15.03125 -24.34375 C 14.144531 -24.34375 13.257812 -24.238281 12.375 -24.03125 Z M 12.375 0 "/></g></g><g style="fill:#47cf68;fill-opacity:1;"><g transform="translate(254.291707, 271.897186)"><path style="stroke:none" d="M 3.515625 0 L 3.515625 -25.90625 L 19.21875 -25.90625 L 18.828125 -23.28125 L 11.546875 -24.5 C 10.265625 -24.5 8.851562 -24.28125 7.3125 -23.84375 L 7.3125 -14.328125 L 16.015625 -14.328125 L 16.015625 -12.84375 L 7.3125 -12.84375 L 7.3125 -1.40625 L 19.453125 -2.625 L 19.0625 0 Z M 3.515625 0 "/></g></g><g style="fill:#47cf68;fill-opacity:1;"><g transform="translate(280.198213, 271.897186)"><path style="stroke:none" d="M 6.34375 -21.40625 C 6.34375 -20.257812 6.789062 -19.195312 7.6875 -18.21875 C 8.59375 -17.238281 9.691406 -16.375 10.984375 -15.625 C 12.273438 -14.882812 13.554688 -14.128906 14.828125 -13.359375 C 16.109375 -12.597656 17.195312 -11.65625 18.09375 -10.53125 C 19 -9.40625 19.453125 -8.164062 19.453125 -6.8125 C 19.453125 -4.664062 18.660156 -2.914062 17.078125 -1.5625 C 15.503906 -0.207031 13.375 0.46875 10.6875 0.46875 C 8 0.46875 5.335938 -0.0390625 2.703125 -1.0625 L 2.703125 -2.890625 C 5.359375 -1.566406 7.617188 -0.90625 9.484375 -0.90625 C 11.359375 -0.90625 12.816406 -1.359375 13.859375 -2.265625 C 14.898438 -3.179688 15.421875 -4.445312 15.421875 -6.0625 C 15.421875 -7.15625 14.988281 -8.148438 14.125 -9.046875 C 13.269531 -9.953125 12.226562 -10.738281 11 -11.40625 C 9.769531 -12.070312 8.539062 -12.753906 7.3125 -13.453125 C 6.09375 -14.160156 5.050781 -15.054688 4.1875 -16.140625 C 3.320312 -17.222656 2.890625 -18.535156 2.890625 -20.078125 C 2.890625 -21.617188 3.570312 -23.050781 4.9375 -24.375 C 6.3125 -25.707031 8.359375 -26.375 11.078125 -26.375 C 12.847656 -26.375 15.09375 -25.972656 17.8125 -25.171875 L 17.421875 -22.5 C 13.898438 -24.019531 10.882812 -24.78125 8.375 -24.78125 C 7.019531 -24.125 6.34375 -23 6.34375 -21.40625 Z M 6.34375 -21.40625 "/></g></g><g style="fill:#47cf68;fill-opacity:1;"><g transform="translate(126.755884, 309.011377)"><path style="stroke:none" d="M 15.796875 -5.78125 C 15.796875 -4.925781 15.601562 -4.113281 15.21875 -3.34375 C 14.832031 -2.570312 14.316406 -1.945312 13.671875 -1.46875 C 12.410156 -0.488281 10.722656 0 8.609375 0 L 2.28125 0 L 2.28125 -20.703125 L 7.890625 -20.703125 C 10.910156 -20.703125 12.875 -19.765625 13.78125 -17.890625 C 14.113281 -17.222656 14.28125 -16.546875 14.28125 -15.859375 C 14.28125 -15.171875 14.226562 -14.632812 14.125 -14.25 C 14 -13.84375 13.835938 -13.457031 13.640625 -13.09375 C 13.171875 -12.300781 12.570312 -11.738281 11.84375 -11.40625 C 13.0625 -11.082031 14.023438 -10.4375 14.734375 -9.46875 C 15.441406 -8.46875 15.796875 -7.238281 15.796875 -5.78125 Z M 12.140625 -15.515625 C 12.140625 -17.609375 10.722656 -18.65625 7.890625 -18.65625 L 4.40625 -18.65625 L 4.40625 -12.203125 L 8.484375 -12.203125 C 9.585938 -12.203125 10.472656 -12.476562 11.140625 -13.03125 C 11.804688 -13.570312 12.140625 -14.398438 12.140625 -15.515625 Z M 13.671875 -6.171875 C 13.671875 -6.785156 13.554688 -7.328125 13.328125 -7.796875 C 13.085938 -8.253906 12.785156 -8.660156 12.421875 -9.015625 C 11.609375 -9.722656 10.65625 -10.078125 9.5625 -10.078125 L 4.40625 -10.078125 L 4.40625 -2.046875 L 9.21875 -2.046875 C 10.519531 -2.046875 11.585938 -2.421875 12.421875 -3.171875 C 13.253906 -3.941406 13.671875 -4.941406 13.671875 -6.171875 Z M 13.671875 -6.171875 "/></g></g><g style="fill:#47cf68;fill-opacity:1;"><g transform="translate(146.19552, 309.011377)"><path style="stroke:none" d="M 10.28125 -9.734375 L 10.28125 0 L 8.15625 0 L 8.15625 -9.734375 L 0.296875 -20.703125 L 3.046875 -20.703125 L 9.21875 -11.84375 L 15.40625 -20.703125 L 18.109375 -20.703125 Z M 10.28125 -9.734375 "/></g></g><g style="fill:#47cf68;fill-opacity:1;"><g transform="translate(167.642786, 309.011377)"><path style="stroke:none" d=""/></g></g><g style="fill:#47cf68;fill-opacity:1;"><g transform="translate(178.899875, 309.011377)"><path style="stroke:none" d="M 9.28125 -5.109375 C 9.28125 -3.117188 8.59375 -1.660156 7.21875 -0.734375 C 6.113281 -0.00390625 4.742188 0.335938 3.109375 0.296875 C 2.410156 0.285156 1.800781 0.195312 1.28125 0.03125 C 0.726562 -0.113281 0.351562 -0.265625 0.15625 -0.421875 L 0.15625 -2.765625 C 0.71875 -2.285156 1.554688 -1.984375 2.671875 -1.859375 C 3.847656 -1.710938 4.851562 -1.875 5.6875 -2.34375 C 6.664062 -2.894531 7.15625 -3.816406 7.15625 -5.109375 L 7.15625 -20.703125 L 9.28125 -20.703125 Z M 9.28125 -5.109375 "/></g></g><g style="fill:#47cf68;fill-opacity:1;"><g transform="translate(193.046711, 309.011377)"><path style="stroke:none" d="M 4.40625 0 L 2.28125 0 L 2.28125 -20.703125 L 4.40625 -20.703125 Z M 4.40625 0 "/></g></g><g style="fill:#47cf68;fill-opacity:1;"><g transform="translate(202.782866, 309.011377)"><path style="stroke:none" d="M 10.28125 -9.734375 L 10.28125 0 L 8.15625 0 L 8.15625 -9.734375 L 0.296875 -20.703125 L 3.046875 -20.703125 L 9.21875 -11.84375 L 15.40625 -20.703125 L 18.109375 -20.703125 Z M 10.28125 -9.734375 "/></g></g><g style="fill:#47cf68;fill-opacity:1;"><g transform="translate(224.230131, 309.011377)"><path style="stroke:none" d="M 20.515625 -10.40625 C 20.515625 -12.738281 19.679688 -14.738281 18.015625 -16.40625 C 16.347656 -18.070312 14.34375 -18.90625 12 -18.90625 C 9.65625 -18.90625 7.65625 -18.070312 6 -16.40625 C 4.332031 -14.738281 3.5 -12.738281 3.5 -10.40625 C 3.5 -8.050781 4.332031 -6.046875 6 -4.390625 C 7.65625 -2.722656 9.65625 -1.890625 12 -1.890625 C 14.34375 -1.890625 16.347656 -2.722656 18.015625 -4.390625 C 19.679688 -6.046875 20.515625 -8.050781 20.515625 -10.40625 Z M 22.640625 -10.40625 C 22.640625 -8.945312 22.367188 -7.566406 21.828125 -6.265625 C 21.253906 -4.972656 20.492188 -3.847656 19.546875 -2.890625 C 18.566406 -1.921875 17.425781 -1.160156 16.125 -0.609375 C 14.832031 -0.0351562 13.457031 0.25 12 0.25 C 10.53125 0.25 9.160156 -0.0351562 7.890625 -0.609375 C 6.585938 -1.160156 5.457031 -1.921875 4.5 -2.890625 C 3.53125 -3.847656 2.769531 -4.972656 2.21875 -6.265625 C 1.65625 -7.566406 1.375 -8.945312 1.375 -10.40625 C 1.375 -11.863281 1.65625 -13.242188 2.21875 -14.546875 C 2.769531 -15.847656 3.53125 -16.972656 4.5 -17.921875 C 5.457031 -18.878906 6.585938 -19.640625 7.890625 -20.203125 C 9.160156 -20.753906 10.53125 -21.03125 12 -21.03125 C 13.457031 -21.03125 14.832031 -20.753906 16.125 -20.203125 C 17.425781 -19.640625 18.566406 -18.878906 19.546875 -17.921875 C 20.492188 -16.972656 21.253906 -15.847656 21.828125 -14.546875 C 22.367188 -13.242188 22.640625 -11.863281 22.640625 -10.40625 Z M 22.640625 -10.40625 "/></g></g></g></svg>